<?xml version="1.0" standalone="no"?>
<!DOCTYPE svg PUBLIC "-//W3C//DTD SVG 20010904//EN"
 "http://www.w3.org/TR/2001/REC-SVG-20010904/DTD/svg10.dtd">
<svg version="1.0" xmlns="http://www.w3.org/2000/svg"
 width="500.000000pt" height="500.000000pt" viewBox="0 0 500.000000 500.000000"
 preserveAspectRatio="xMidYMid meet">

<g transform="translate(0.000000,500.000000) scale(0.100000,-0.100000)"
fill="#fff" stroke="none">
<path d="M470 3831 c0 -5 42 -10 93 -13 108 -4 152 -24 179 -78 17 -32 18 -88
18 -722 0 -452 3 -688 10 -688 7 0 10 234 10 683 0 422 4 676 10 667 5 -8 132
-315 282 -682 l273 -669 119 3 119 3 241 687 c133 378 245 690 249 694 4 4 7
-306 7 -689 l0 -697 130 0 129 0 3 694 c3 684 3 695 24 722 37 50 68 66 138
71 36 3 66 10 66 14 0 5 -108 9 -239 9 l-239 0 -30 -82 c-16 -46 -128 -362
-247 -703 -120 -341 -221 -623 -225 -628 -3 -4 -137 311 -297 700 l-291 708
-266 3 c-152 1 -266 -2 -266 -7z"/>
<path d="M2360 3081 c0 -4 21 -11 46 -14 51 -5 89 -29 119 -74 11 -16 70 -172
130 -346 l110 -317 138 0 c75 0 137 1 137 3 0 2 -43 128 -95 282 -110 321
-119 352 -105 392 15 42 46 56 133 61 42 3 77 8 77 13 0 5 -155 9 -345 9 -190
0 -345 -4 -345 -9z"/>
<path d="M3420 3080 c0 -6 39 -10 98 -10 113 0 165 -12 187 -43 30 -42 18
-102 -79 -404 -56 -177 -89 -293 -82 -293 7 0 22 33 35 73 100 319 184 561
203 591 31 48 90 76 161 76 31 0 57 5 57 10 0 6 -103 10 -290 10 -187 0 -290
-4 -290 -10z"/>
<path d="M2987 1703 c25 -70 61 -175 82 -233 l36 -105 69 0 69 0 68 210 c79
245 82 255 71 255 -5 0 -26 -56 -47 -125 -21 -69 -41 -125 -44 -125 -3 0 -22
55 -41 123 l-35 122 -137 3 -137 3 46 -128z"/>
</g>
</svg>
